<svg xmlns="http://www.w3.org/2000/svg" viewBox="0 0 360 238"><defs><style>.cls-1{fill:#ba2031;}.cls-2{fill:#fff;}</style></defs><g id="Layer_2" data-name="Layer 2"><rect width="360" height="238"/></g><g id="Layer_3" data-name="Layer 3"><path class="cls-1" d="M195.9,77l-7.65-7.62H171.69L164,77.07V104.3l7.68,7.69h16.56l7.65-7.61V77Zm-24,3.37,3.1-3.1h10l3.1,3.1V101l-3.1,3.09H175l-3.1-3.09V80.37Z"/><path class="cls-2" d="M171,67.35l-8.75,8.76v29l8.69,8.81H189l8.69-8.76.06-29-8.69-8.76Zm-8,37.39V76.46l8.33-8.31h17.4l8.35,8.32-.14,28.34-8.27,8.27H171.33L163,104.74Z"/><path class="cls-2" d="M186.85,80.92l-2.46-2.46h-8.86l-2.42,2.43v19.6l2.37,2.37h9l2.35-2.35V80.92Zm-11-1.66h8.23l2,2v19l-1.89,1.89H175.8l-1.86-1.86v-19l1.93-1.93Z"/><polygon class="cls-2" points="114.53 129.17 114.27 127.36 110.97 127.36 110.97 139.03 112.73 139.28 112.73 140.39 106.48 140.39 106.48 139.28 108.23 139.03 108.23 127.36 104.93 127.36 104.67 129.17 103.5 129.17 103.5 125.84 115.7 125.84 115.7 129.17 114.53 129.17 114.53 129.17"/><polygon class="cls-2" points="123.59 140.39 123.59 139.35 125.22 139.09 125.22 135.12 120.87 135.12 120.87 139.09 122.5 139.35 122.5 140.39 116.57 140.39 116.57 139.35 118.27 139.09 118.27 130.29 116.57 130.03 116.57 128.99 122.5 128.99 122.5 130.03 120.87 130.29 120.87 133.73 125.22 133.73 125.22 130.29 123.59 130.03 123.59 128.99 129.51 128.99 129.51 130.03 127.82 130.29 127.82 139.09 129.51 139.35 129.51 140.39 123.59 140.39 123.59 140.39"/><polygon class="cls-2" points="140.61 140.39 130.77 140.39 130.77 139.35 132.47 139.09 132.47 130.29 130.77 130.03 130.77 128.99 140.61 128.99 140.61 132.01 139.5 132.01 139.24 130.38 135.07 130.38 135.07 133.77 137.68 133.77 137.94 132.31 138.92 132.31 138.92 136.53 137.94 136.53 137.68 135.07 135.07 135.07 135.07 139 139.24 139 139.5 137.37 140.61 137.37 140.61 140.39 140.61 140.39"/><path class="cls-2" d="M154.47,127.17c-2.42,0-3.65,1.93-3.65,5.93s1.19,6,3.6,6,3.65-1.93,3.65-5.93-1.19-6-3.6-6Zm0,13.48c-4.51,0-6.49-2.69-6.49-7.57s2-7.5,6.52-7.5,6.49,2.7,6.49,7.58-2,7.49-6.52,7.49Z"/><polygon class="cls-2" points="169.14 140.39 169.14 139.35 170.77 139.09 170.77 135.12 166.43 135.12 166.43 139.09 168.06 139.35 168.06 140.39 162.13 140.39 162.13 139.35 163.82 139.09 163.82 130.29 162.13 130.03 162.13 128.99 168.06 128.99 168.06 130.03 166.43 130.29 166.43 133.73 170.77 133.73 170.77 130.29 169.14 130.03 169.14 128.99 175.07 128.99 175.07 130.03 173.38 130.29 173.38 139.09 175.07 139.35 175.07 140.39 169.14 140.39 169.14 140.39"/><polygon class="cls-2" points="176.48 140.39 176.48 139.35 178.18 139.09 178.18 130.29 176.48 130.03 176.48 128.99 182.48 128.99 182.48 130.03 180.78 130.29 180.78 139.09 182.48 139.35 182.48 140.39 176.48 140.39 176.48 140.39"/><path class="cls-2" d="M188.93,130.3c-1.83,0-2.8,1.32-2.8,4.38s.93,4.43,2.75,4.43,2.83-1.32,2.83-4.38-1-4.43-2.78-4.43Zm0,10.31c-3.85,0-5.52-2.15-5.52-5.93s1.69-5.88,5.54-5.88,5.51,2.15,5.51,5.93-1.69,5.88-5.53,5.88Z"/><path class="cls-2" d="M206.32,140.65a12.85,12.85,0,0,1-4.54-.86v-3.11H203l.28,2a8.71,8.71,0,0,0,2.59.32c1.69,0,3.21-.56,3.21-2.41,0-1.67-1.17-1.91-2.61-2.39-2.28-.76-4.69-1.41-4.69-4.53,0-2.55,1.59-4.09,4.91-4.09a12.51,12.51,0,0,1,4.34.83v2.91h-1.24l-.28-1.87a14,14,0,0,0-2.56-.28c-1.26,0-2.56.43-2.56,2.11,0,3.62,7.29,1.23,7.29,7,0,2.74-1.78,4.34-5.38,4.34Z"/><polygon class="cls-2" points="222 132.14 221.74 130.38 219.22 130.38 219.22 139.09 220.91 139.35 220.91 140.39 214.92 140.39 214.92 139.35 216.61 139.09 216.61 130.38 214.09 130.38 213.83 132.14 212.72 132.14 212.72 128.99 223.1 128.99 223.1 132.14 222 132.14 222 132.14"/><path class="cls-2" d="M228.73,131.19l-1.65,4.51h3.3l-1.65-4.51Zm1.34,9.2v-1l1.63-.26-.8-2.06h-4.34l-.81,2.06,1.63.26v1h-5v-1l1.63-.26L228,129h2.49l3.91,10.1,1.63.26v1Z"/><polygon class="cls-2" points="244.56 132.14 244.29 130.38 241.78 130.38 241.78 139.09 243.47 139.35 243.47 140.39 237.48 140.39 237.48 139.35 239.17 139.09 239.17 130.38 236.65 130.38 236.39 132.14 235.28 132.14 235.28 128.99 245.66 128.99 245.66 132.14 244.56 132.14 244.56 132.14"/><polygon class="cls-2" points="256.5 140.39 246.66 140.39 246.66 139.35 248.36 139.09 248.36 130.29 246.66 130.03 246.66 128.99 256.5 128.99 256.5 132.01 255.39 132.01 255.13 130.38 250.96 130.38 250.96 133.77 253.57 133.77 253.83 132.31 254.81 132.31 254.81 136.53 253.83 136.53 253.57 135.07 250.96 135.07 250.96 139 255.13 139 255.39 137.37 256.5 137.37 256.5 140.39 256.5 140.39"/><path class="cls-2" d="M134.5,148.72v7.42c0,2.5-.15,3.59-1.33,4.76-.84.85-2.23,1.26-4.3,1.26a6.21,6.21,0,0,1-4.51-1.52c-1.24-1.24-1.11-3.08-1.11-4.69v-7.23l-1.76-.26v-1.11h6.25v1.11l-1.76.26v8.51c0,2.39,1.33,3.34,3.37,3.34a3.32,3.32,0,0,0,2.56-.84,3.54,3.54,0,0,0,.81-2.5v-8.51l-1.76-.26v-1.11h5.3v1.11l-1.76.26Z"/><polygon class="cls-2" points="148.2 151.8 148.2 161.9 146.16 161.9 140.36 153.75 140.36 160.59 142.05 160.86 142.05 161.9 136.95 161.9 136.95 160.86 138.64 160.59 138.64 151.8 136.95 151.54 136.95 150.5 140.93 150.5 146.48 158.27 146.48 151.8 144.79 151.54 144.79 150.5 149.89 150.5 149.89 151.54 148.2 151.8 148.2 151.8"/><polygon class="cls-2" points="151.24 161.9 151.24 160.86 152.93 160.59 152.93 151.8 151.24 151.54 151.24 150.5 157.23 150.5 157.23 151.54 155.54 151.8 155.54 160.59 157.23 160.86 157.23 161.9 151.24 161.9 151.24 161.9"/><polygon class="cls-2" points="169.96 151.8 166.16 161.9 163.64 161.9 159.84 151.8 158.21 151.54 158.21 150.5 164.12 150.5 164.12 151.54 162.49 151.8 165.38 159.62 168.24 151.8 166.61 151.54 166.61 150.5 171.59 150.5 171.59 151.54 169.96 151.8 169.96 151.8"/><polygon class="cls-2" points="182.31 161.9 172.48 161.9 172.48 160.86 174.17 160.59 174.17 151.8 172.48 151.54 172.48 150.5 182.31 150.5 182.31 153.52 181.21 153.52 180.94 151.89 176.78 151.89 176.78 155.28 179.38 155.28 179.64 153.82 180.62 153.82 180.62 158.03 179.64 158.03 179.38 156.58 176.78 156.58 176.78 160.51 180.94 160.51 181.21 158.88 182.31 158.88 182.31 161.9 182.31 161.9"/><path class="cls-2" d="M191.09,152.23c-.44-.45-1.37-.41-2-.41h-.76v3.65h.46c.73,0,1.76.09,2.3-.52a1.89,1.89,0,0,0,.43-1.35,1.94,1.94,0,0,0-.47-1.37Zm1.21,9.67-1.06-2.61c-.72-1.73-1.15-2.54-2.67-2.54h-.2v3.84l1.63.27v1h-5.93v-1l1.69-.27V151.8l-1.69-.26v-1h5.76a5,5,0,0,1,3.43.89,2.85,2.85,0,0,1,.91,2.13,3,3,0,0,1-2.06,2.88c.95.72,1.78,3.07,2.25,4.19l1.63.27v1Z"/><path class="cls-2" d="M201.14,162.11a11.77,11.77,0,0,1-3.91-.71v-3h1.17l.28,1.86a8.34,8.34,0,0,0,2.11.24c1.39,0,2.45-.45,2.45-1.69,0-.87-.47-1.17-1.19-1.41-2.11-.72-4.8-1-4.8-3.87,0-2,1.41-3.28,4.21-3.28a11.19,11.19,0,0,1,3.76.68v2.82h-1.17l-.28-1.78a10.21,10.21,0,0,0-2-.22c-1.07,0-2,.37-2,1.48,0,2.54,6,.84,6,5.36,0,2.22-1.6,3.47-4.62,3.47Z"/><polygon class="cls-2" points="207.28 161.9 207.28 160.86 208.98 160.59 208.98 151.8 207.28 151.54 207.28 150.5 213.28 150.5 213.28 151.54 211.58 151.8 211.58 160.59 213.28 160.86 213.28 161.9 207.28 161.9 207.28 161.9"/><polygon class="cls-2" points="223.79 153.65 223.53 151.89 221.01 151.89 221.01 160.59 222.7 160.86 222.7 161.9 216.71 161.9 216.71 160.86 218.4 160.59 218.4 151.89 215.88 151.89 215.62 153.65 214.51 153.65 214.51 150.5 224.9 150.5 224.9 153.65 223.79 153.65 223.79 153.65"/><polygon class="cls-2" points="236.88 151.8 233.56 156.95 233.56 160.59 235.25 160.86 235.25 161.9 229.26 161.9 229.26 160.86 230.95 160.59 230.95 156.95 227.59 151.8 225.96 151.54 225.96 150.5 232 150.5 232 151.54 230.37 151.8 232.71 155.49 235.03 151.8 233.47 151.54 233.47 150.5 238.51 150.5 238.51 151.54 236.88 151.8 236.88 151.8"/><polygon class="cls-2" points="120.62 169.83 120.62 170.65 239.38 170.65 239.38 169.83 120.62 169.83 120.62 169.83 120.62 169.83"/></g></svg>